HIERARCHY
ROOT Hips
{
	OFFSET 173.408295 91.952423 -518.280273
	CHANNELS 6 Xposition Yposition Zposition Zrotation Yrotation Xrotation 
	JOINT LeftUpLeg
	{
		OFFSET 0.103459 1.857827 10.548504
		CHANNELS 3 Zrotation Yrotation Xrotation
		JOINT LeftLeg
		{
			OFFSET 43.500008 0.000000 0.000004
			CHANNELS 3 Zrotation Yrotation Xrotation
			JOINT LeftFoot
			{
				OFFSET 42.372192 0.000011 0.000000
				CHANNELS 3 Zrotation Yrotation Xrotation
				JOINT LeftToe
				{
					OFFSET 17.299973 -0.000013 -0.000010
					CHANNELS 3 Zrotation Yrotation Xrotation
					End Site
					{
						OFFSET 0.000000 0.000000 0.000000
					}
				}
			}
		}
	}
	JOINT RightUpLeg
	{
		OFFSET 0.103454 1.857830 -10.548500
		CHANNELS 3 Zrotation Yrotation Xrotation
		JOINT RightLeg
		{
			OFFSET 43.500038 -0.000038 0.000004
			CHANNELS 3 Zrotation Yrotation Xrotation
			JOINT RightFoot
			{
				OFFSET 42.372253 0.000019 0.000024
				CHANNELS 3 Zrotation Yrotation Xrotation
				JOINT RightToe
				{
					OFFSET 17.299988 -0.000007 0.000004
					CHANNELS 3 Zrotation Yrotation Xrotation
					End Site
					{
						OFFSET 0.000000 0.000000 0.000000
					}
				}
			}
		}
	}
	JOINT Spine
	{
		OFFSET 6.901963 -2.603744 0.000004
		CHANNELS 3 Zrotation Yrotation Xrotation
		JOINT Spine1
		{
			OFFSET 12.588104 0.000008 -0.000010
			CHANNELS 3 Zrotation Yrotation Xrotation
			JOINT Spine2
			{
				OFFSET 12.343202 -0.000005 0.000010
				CHANNELS 3 Zrotation Yrotation Xrotation
				JOINT Neck
				{
					OFFSET 25.832897 0.000000 0.000001
					CHANNELS 3 Zrotation Yrotation Xrotation
					JOINT Head
					{
						OFFSET 11.766611 -0.000006 -0.000000
						CHANNELS 3 Zrotation Yrotation Xrotation
						End Site
						{
							OFFSET 0.000000 0.000000 0.000000
						}
					}
				}
				JOINT LeftShoulder
				{
					OFFSET 19.745899 -1.480366 6.000108
					CHANNELS 3 Zrotation Yrotation Xrotation
					JOINT LeftArm
					{
						OFFSET 11.284111 -0.000018 -0.000015
						CHANNELS 3 Zrotation Yrotation Xrotation
						JOINT LeftForeArm
						{
							OFFSET 33.000050 -0.000005 0.000028
							CHANNELS 3 Zrotation Yrotation Xrotation
							JOINT LeftHand
							{
								OFFSET 25.200012 0.000000 0.000002
								CHANNELS 3 Zrotation Yrotation Xrotation
								End Site
								{
									OFFSET 0.000000 0.000000 0.000000
								}
							}
						}
					}
				}
				JOINT RightShoulder
				{
					OFFSET 19.746111 -1.480335 -6.000074
					CHANNELS 3 Zrotation Yrotation Xrotation
					JOINT RightArm
					{
						OFFSET 11.284151 0.000036 0.000001
						CHANNELS 3 Zrotation Yrotation Xrotation
						JOINT RightForeArm
						{
							OFFSET 33.000092 -0.000035 0.000022
							CHANNELS 3 Zrotation Yrotation Xrotation
							JOINT RightHand
							{
								OFFSET 25.199768 0.000178 0.000417
								CHANNELS 3 Zrotation Yrotation Xrotation
								End Site
								{
									OFFSET 0.000000 0.000000 0.000000
								}
							}
						}
					}
				}
			}
		}
	}
}
MOTION
Frames: 10
Frame Time: 0.033333
0.000208 0.002763 0.000031 4.648444 0.443289 82.716827 0.830162 3.827631 -0.103566 -5.848673 10.747719 -2.755641 -0.498558 -11.285945 15.171533 10.236613 -0.089263 -2.263851 -3.180705 6.249693 -0.094215 5.934240 10.140727 0.121390 -5.382674 -13.828790 -8.414536 3.014356 11.033776 -5.917307 1.478641 10.802057 -2.798330 -1.547393 2.791344 0.454081 -0.237861 2.834101 1.317066 -0.872483 1.999713 2.803449 0.737344 0.174902 3.009583 -19.020176 2.415490 -0.250560 -49.382111 6.076133 -4.696231 9.753946 5.160960 -61.446709 -17.305323 -24.258539 -11.820866 14.191541 3.078172 2.484951 50.078312 12.944575 5.376129 -13.006845 1.932807 60.728096 8.735111 -15.636831 0.047176 
0.000355 0.005506 -0.000475 4.503045 0.586994 82.924965 0.702379 3.749261 -0.389895 -5.691010 11.024450 -2.501190 -0.130053 -10.345161 15.547682 8.517504 -1.211929 -2.437012 -3.058224 5.908473 -0.075059 6.070836 10.965246 -0.585125 -5.739278 -13.041769 -8.806211 3.108763 9.108857 -5.305921 1.344014 10.798866 -2.791401 -1.091545 2.375927 0.576998 -0.382492 2.649510 1.023700 -0.994658 2.654820 3.028942 1.024403 0.288737 3.282968 -19.676891 2.178224 -0.563790 -49.148712 5.767215 -4.778837 10.686788 6.251072 -59.013050 -17.889940 -22.586590 -10.925120 14.688536 3.219924 2.249193 49.407715 12.337530 5.396661 -12.901376 2.429559 61.232662 7.058063 -17.929930 -0.595574 
0.000275 0.008034 -0.001106 4.335352 0.738082 83.035599 0.702379 3.749261 -0.389895 -5.691010 11.024450 -2.501190 -0.130053 -10.345161 15.547682 8.517504 -1.211929 -2.437012 -3.058224 5.908473 -0.075059 6.070836 10.965246 -0.585125 -5.739278 -13.041769 -8.806211 3.108763 9.108857 -5.305921 1.344014 10.798866 -2.791401 -1.091545 2.375927 0.576998 -0.382492 2.649510 1.023700 -0.994658 2.654820 3.028942 1.024403 0.288737 3.282968 -19.676891 2.178224 -0.563790 -49.148712 5.767215 -4.778837 10.686788 6.251072 -59.013050 -17.889940 -22.586590 -10.925120 14.688536 3.219924 2.249193 49.407715 12.337530 5.396661 -12.901376 2.429559 61.232662 7.058063 -17.929930 -0.595574 
0.000104 0.010360 -0.001423 4.122497 0.919672 82.982513 0.684639 3.663008 0.361278 -6.119155 11.214133 -3.191112 -0.646213 -11.280756 15.364814 9.195774 -3.387191 -2.279973 -3.077000 5.933387 0.590236 5.607146 10.796992 -0.864633 -6.130825 -13.511492 -9.250281 3.833492 9.158744 -5.446012 1.272082 10.650233 -3.075474 -1.305662 2.353744 0.443827 -0.326756 2.558863 1.068396 -0.766052 1.904430 2.911388 0.607927 1.077905 4.068240 -20.133661 2.717046 -0.341537 -48.527679 5.803761 -4.817197 9.955926 5.622506 -60.140018 -16.436251 -21.906754 -11.367671 14.957863 3.008553 2.521605 48.697002 12.731971 5.341092 -11.969940 2.346868 61.396580 7.345788 -14.381336 0.317181 
0.000204 0.012997 -0.001427 4.068484 1.029222 82.905029 0.684639 3.663008 0.361278 -6.119155 11.214133 -3.191112 -0.646213 -11.280756 15.364814 9.195774 -3.387191 -2.279973 -3.077000 5.933387 0.590236 5.607146 10.796992 -0.864633 -6.130825 -13.511492 -9.250281 3.833492 9.158744 -5.446012 1.272082 10.650233 -3.075474 -1.305662 2.353744 0.443827 -0.326756 2.558863 1.068396 -0.766052 1.904430 2.911388 0.607927 1.077905 4.068240 -20.133661 2.717046 -0.341537 -48.527679 5.803761 -4.817197 9.955926 5.622506 -60.140018 -16.436251 -21.906754 -11.367671 14.957863 3.008553 2.521605 48.697002 12.731971 5.341092 -11.969940 2.346868 61.396580 7.345788 -14.381336 0.317181 
0.000378 0.015521 -0.000795 4.122029 0.971720 82.777336 0.460955 3.549483 0.326587 -6.043348 11.999747 -3.144573 -0.690813 -11.547156 15.632544 10.399723 -1.670110 -2.330110 -3.162937 5.937174 0.854487 5.680736 11.404723 -0.719149 -5.772927 -13.624904 -9.793002 3.587606 8.184480 -5.192085 1.270652 10.819853 -3.035557 -1.293336 2.486552 0.554363 -0.172722 2.569760 1.136776 -0.668421 2.108721 2.785525 0.597310 0.903274 3.987674 -19.975227 2.800909 -0.517419 -48.796474 5.717593 -5.261739 9.836760 5.886675 -60.571857 -20.043344 -22.022341 -12.479234 14.752159 2.742970 2.583450 48.717171 12.517035 5.452981 -11.821710 1.132116 61.550423 7.250853 -13.954890 -0.250720 
0.000463 0.018113 0.000353 4.215542 0.811556 82.656975 0.460955 3.549483 0.326587 -6.043348 11.999747 -3.144573 -0.690813 -11.547156 15.632544 10.399723 -1.670110 -2.330110 -3.162937 5.937174 0.854487 5.680736 11.404723 -0.719149 -5.772927 -13.624904 -9.793002 3.587606 8.184480 -5.192085 1.270652 10.819853 -3.035557 -1.293336 2.486552 0.554363 -0.172722 2.569760 1.136776 -0.668421 2.108721 2.785525 0.597310 0.903274 3.987674 -19.975227 2.800909 -0.517419 -48.796474 5.717593 -5.261739 9.836760 5.886675 -60.571857 -20.043344 -22.022341 -12.479234 14.752159 2.742970 2.583450 48.717171 12.517035 5.452981 -11.821710 1.132116 61.550423 7.250853 -13.954890 -0.250720 
0.000291 0.020583 0.000938 4.331258 0.694282 82.785561 0.657472 3.796151 0.816751 -6.263225 12.386321 -2.343831 -0.197184 -10.604939 16.293392 9.360972 -2.313666 -3.993350 -2.700754 5.759931 1.273496 5.683683 12.719318 -1.678161 -7.383513 -13.477280 -10.494246 5.478535 9.994614 -4.145430 1.634057 11.437097 -3.340526 -1.371686 2.114261 0.680898 -0.137425 2.210288 1.415707 0.009239 2.844497 3.298076 0.223116 1.126396 3.687908 -19.951170 2.735042 -0.627216 -48.964611 5.607806 -5.775585 10.047472 6.777318 -58.404369 -19.324902 -20.876171 -13.433601 15.174356 2.245812 2.162083 48.507915 12.935404 5.304698 -13.190128 1.791551 61.530807 5.376215 -10.973707 -0.071468 
0.000111 0.022138 0.000879 4.114760 0.669836 82.633797 0.657472 3.796151 0.816751 -6.263225 12.386321 -2.343831 -0.197184 -10.604939 16.293392 9.360972 -2.313666 -3.993350 -2.700754 5.759931 1.273496 5.683683 12.719318 -1.678161 -7.383513 -13.477280 -10.494246 5.478535 9.994614 -4.145430 1.634057 11.437097 -3.340526 -1.371686 2.114261 0.680898 -0.137425 2.210288 1.415707 0.009239 2.844497 3.298076 0.223116 1.126396 3.687908 -19.951170 2.735042 -0.627216 -48.964611 5.607806 -5.775585 10.047472 6.777318 -58.404369 -19.324902 -20.876171 -13.433601 15.174356 2.245812 2.162083 48.507915 12.935404 5.304698 -13.190128 1.791551 61.530807 5.376215 -10.973707 -0.071468 
0.000828 0.024364 0.000673 3.982594 0.586624 82.088562 0.340919 3.845844 1.394090 -5.472223 12.204052 -2.349294 -1.132246 -10.355526 16.745062 8.686749 -4.182853 -4.796642 -3.042632 4.700373 0.232259 4.935040 10.510360 -2.584738 -6.762849 -14.884129 -12.415263 6.753426 8.061651 -8.047474 1.790404 11.334910 -3.161836 -0.975984 2.268223 0.839316 -0.437223 1.980646 1.282628 -0.571534 2.308229 3.518687 0.404968 1.602934 4.633945 -21.247200 3.373008 -1.297685 -48.070362 5.298124 -5.417800 9.051699 4.817288 -59.266682 -20.830809 -23.352095 -13.312035 15.744509 1.873676 3.119290 47.477802 12.611902 5.698516 -10.601407 1.458285 59.416344 3.168141 -12.233660 -0.899206 
